<svg width="16" height="16" viewBox="0 0 16 16" fill="none" xmlns="http://www.w3.org/2000/svg">
<g id="Frame 26154">
<rect width="16" height="16" fill="white"/>
<path id="Vector" d="M6.66444 2.73739C7.04036 2.41704 7.22831 2.25687 7.42483 2.16294C7.87936 1.94569 8.40777 1.94569 8.86229 2.16294C9.05881 2.25687 9.24677 2.41704 9.62268 2.73739C9.7723 2.8649 9.84711 2.92865 9.927 2.9822C10.1101 3.10495 10.3158 3.19014 10.5321 3.23284C10.6265 3.25147 10.7245 3.25929 10.9204 3.27493C11.4127 3.31422 11.6589 3.33386 11.8643 3.4064C12.3393 3.57418 12.7129 3.94782 12.8807 4.42284C12.9533 4.62822 12.9729 4.87439 13.0122 5.36672C13.0278 5.56267 13.0357 5.66065 13.0543 5.75501C13.097 5.97131 13.1822 6.17698 13.3049 6.36012C13.3585 6.44002 13.4222 6.51483 13.5497 6.66444C13.8701 7.04036 14.0303 7.22831 14.1242 7.42483C14.3414 7.87936 14.3414 8.40777 14.1242 8.86229C14.0303 9.05881 13.8701 9.24677 13.5497 9.62268C13.4222 9.7723 13.3585 9.84711 13.3049 9.927C13.1822 10.1101 13.097 10.3158 13.0543 10.5321C13.0357 10.6265 13.0278 10.7245 13.0122 10.9204C12.9729 11.4127 12.9533 11.6589 12.8807 11.8643C12.7129 12.3393 12.3393 12.7129 11.8643 12.8807C11.6589 12.9533 11.4127 12.9729 10.9204 13.0122C10.7245 13.0278 10.6265 13.0357 10.5321 13.0543C10.3158 13.097 10.1101 13.1822 9.927 13.3049C9.84711 13.3585 9.7723 13.4222 9.62268 13.5497C9.24677 13.8701 9.05881 14.0303 8.86229 14.1242C8.40777 14.3414 7.87936 14.3414 7.42483 14.1242C7.22831 14.0303 7.04036 13.8701 6.66444 13.5497C6.51483 13.4222 6.44002 13.3585 6.36012 13.3049C6.17698 13.1822 5.97131 13.097 5.75501 13.0543C5.66065 13.0357 5.56267 13.0278 5.36672 13.0122C4.87439 12.9729 4.62822 12.9533 4.42284 12.8807C3.94782 12.7129 3.57418 12.3393 3.4064 11.8643C3.33386 11.6589 3.31422 11.4127 3.27493 10.9204C3.25929 10.7245 3.25147 10.6265 3.23284 10.5321C3.19014 10.3158 3.10495 10.1101 2.9822 9.927C2.92865 9.84711 2.8649 9.7723 2.73739 9.62268C2.41704 9.24677 2.25687 9.05881 2.16294 8.86229C1.94569 8.40777 1.94569 7.87936 2.16294 7.42483C2.25687 7.22831 2.41704 7.04036 2.73739 6.66444C2.8649 6.51483 2.92865 6.44002 2.9822 6.36012C3.10495 6.17698 3.19014 5.97131 3.23284 5.75501C3.25147 5.66065 3.25929 5.56267 3.27493 5.36672C3.31422 4.87439 3.33386 4.62822 3.4064 4.42284C3.57418 3.94782 3.94782 3.57418 4.42284 3.4064C4.62822 3.33386 4.87439 3.31422 5.36672 3.27493C5.56267 3.25929 5.66065 3.25147 5.75501 3.23284C5.97131 3.19014 6.17698 3.10495 6.36012 2.9822C6.44002 2.92865 6.51483 2.8649 6.66444 2.73739Z" stroke="#1C274C"/>
<path id="Vector_2" d="M5.8103 8.47705L7.14364 9.81038L10.477 6.47705" stroke="#1C274C" stroke-linecap="round" stroke-linejoin="round"/>
</g>
</svg>
