<svg width="120" height="120" viewBox="0 0 120 120" fill="none" xmlns="http://www.w3.org/2000/svg">
<g id="Nonetwork" clip-path="url(#clip0_12501_201355)">
<g id="icon">
<path id="&#230;&#164;&#173;&#229;&#156;&#134;&#229;&#189;&#162;" fill-rule="evenodd" clip-rule="evenodd" d="M60 120C93.1371 120 120 93.1371 120 60C120 26.8629 93.1371 0 60 0C45.133 0 39.4818 17.8318 29 26.7868C16.1188 37.7917 0 41.7299 0 60C0 93.1371 26.8629 120 60 120Z" fill="#EEF0F6"/>
<g id="&#230;&#164;&#173;&#229;&#156;&#134;&#229;&#189;&#162;_2" filter="url(#filter0_f_12501_201355)">
<path fill-rule="evenodd" clip-rule="evenodd" d="M61 110C84.196 110 103 91.196 103 68C103 44.804 84.196 26 61 26C50.5931 26 46.6373 38.4823 39.3 44.7508C30.2832 52.4542 19 55.2109 19 68C19 91.196 37.804 110 61 110Z" fill="#E1E5EF"/>
</g>
<path id="&#230;&#164;&#173;&#229;&#156;&#134;&#229;&#189;&#162;_3" d="M59.5 96C78.83 96 94.5 80.33 94.5 61C94.5 41.67 78.83 26 59.5 26C40.17 26 24.5 41.67 24.5 61C24.5 80.33 40.17 96 59.5 96Z" fill="white"/>
<path id="&#230;&#164;&#173;&#229;&#156;&#134;&#229;&#189;&#162; (Stroke)" fill-rule="evenodd" clip-rule="evenodd" d="M85.075 27.8683C88.2554 27.793 91.2627 28.5876 93.4411 30.7661C95.7231 33.048 96.4855 36.2344 96.3224 39.5862C96.1594 42.9374 95.0701 46.7357 93.3015 50.7066C89.7571 58.6649 83.2589 67.8184 74.7028 76.3745C66.1467 84.9306 56.9932 91.4287 49.0349 94.9732C45.064 96.7417 41.2657 97.8311 37.9145 97.9941C34.5627 98.1571 31.3763 97.3947 29.0944 95.1128C26.8725 92.8908 26.0906 89.8087 26.2022 86.5564C26.3136 83.3091 27.3128 79.6357 28.9617 75.7949C32.4413 67.69 39.0561 58.2811 47.8327 49.5044C56.769 40.5681 66.3638 33.8703 74.5717 30.4435C78.3187 28.8791 81.9024 27.9435 85.075 27.8683ZM85.1935 32.8669C82.8555 32.9223 79.9085 33.6337 76.498 35.0576C69.0454 38.169 59.9781 44.4301 51.3683 53.0399C42.9154 61.4928 36.7238 70.3893 33.5562 77.7674C32.0502 81.2753 31.282 84.3149 31.1992 86.7278C31.1167 89.1358 31.7139 90.6612 32.6299 91.5773C33.5698 92.5172 35.1544 93.1224 37.6716 93C40.1892 92.8775 43.3579 92.0281 47.0006 90.4057C54.2697 87.1682 62.9308 81.0754 71.1673 72.8389C79.4037 64.6025 85.4965 55.9414 88.734 48.6723C90.3565 45.0295 91.2058 41.8609 91.3283 39.3432C91.4508 36.8261 90.8455 35.2415 89.9056 34.3016C89.0068 33.4028 87.5236 32.8117 85.1935 32.8669Z" fill="#676C93"/>
<path id="&#230;&#164;&#173;&#229;&#156;&#134;&#229;&#189;&#162;_4" fill-rule="evenodd" clip-rule="evenodd" d="M52.9149 70.827C72.2449 70.827 67.4608 71.6659 67.4608 52.6121C67.4608 41.7346 89.3929 39.9205 81.4134 33.5971C78.1533 31.0137 74.4138 28.9941 70.3472 27.6887C66.932 26.5924 63.7862 33.5971 59.9999 33.5971C40.6699 33.5971 35.5898 41.446 35.5898 60.4998C35.5898 65.0502 25.3936 69.3949 27.0175 73.3726C28.6318 77.3267 30.9676 80.9182 33.8643 83.9885C40.255 90.7624 42.7904 70.827 52.9149 70.827Z" fill="white"/>
</g>
</g>
<defs>
<filter id="filter0_f_12501_201355" x="8" y="15" width="106" height="106" filterUnits="userSpaceOnUse" color-interpolation-filters="sRGB">
<feFlood flood-opacity="0" result="BackgroundImageFix"/>
<feBlend mode="normal" in="SourceGraphic" in2="BackgroundImageFix" result="shape"/>
<feGaussianBlur stdDeviation="5.5" result="effect1_foregroundBlur_12501_201355"/>
</filter>
<clipPath id="clip0_12501_201355">
<rect width="120" height="120" fill="white"/>
</clipPath>
</defs>
</svg>
